<svg xmlns="http://www.w3.org/2000/svg" width="2859.676" height="454.871" viewBox="0 0 2859.676 454.871">
  <g id="bg" transform="translate(759.434 -125.175)">
    <path id="Path_160" data-name="Path 160" d="M0,0H2107.786V454.871H0Z" transform="translate(-377.916 125.175)" fill="#fff"/>
    <path id="Path_1" data-name="Path 1" d="M7.033,1570.26c20.122-27.078,48.312-45.539,89.985-49.4,41.785-3.871,99.107,37.2,147.18,31.611,42.618-4.959,79.209-18.84,112.335-16.313,31.29,2.387,56.954,7.957,81.666,20.211,26.915,13.346,76.205-38.169,117.765-37.645,52.689.664,95.169,38.9,145.027,32.378,28.913-3.784,54.04-13.834,81.786-14.944,15.6-.624,20.745,10.777,31.253,16.455,7.238,3.911,26.089-16.984,44.621-16.455,16.679.477,21.546,15.063,43.228,16.884,40.173,3.374,57.415-5.069,55.966,17.218Z" transform="translate(174.936 -1056.583)" fill="#8ec741" fill-rule="evenodd" opacity="0.26"/>
    <path id="Path_2" data-name="Path 2" d="M953.225,853.15H0v-1.906H953.225Zm-14.781-34.169a.952.952,0,0,1-.652-.258c-9.182-8.617-17.591-8.736-25.71-.363a.953.953,0,0,1-1.525-.215,154.2,154.2,0,0,0-27.529-36.559,181.152,181.152,0,0,0-36.012-27.739c-26.133-15.352-53.431-22.544-74.892-19.731-21.5,2.817-35.41,15.237-40.24,35.918a.949.949,0,0,1-.3.517.96.96,0,0,1-1.3-.04c-9.945-9.8-20.154-15.507-31.209-17.44-12.291-2.149-25.289.394-39.738,7.775a.956.956,0,0,1-.673.073c-14.907-3.876-31.25-7.083-39.439-1.485-3.077,2.1-4.83,5.314-5.36,9.813a.953.953,0,0,1-1.1.83c-36.557-5.935-66.19-5.854-90.593.248a107.047,107.047,0,0,0-34.953,15.359,95.668,95.668,0,0,0-26.554,27.864.973.973,0,0,1-.635.451.956.956,0,0,1-1.125-.777c-2.544-14.885-7.819-24.718-16.125-30.064a30.778,30.778,0,0,0-14.567-4.577,62.964,62.964,0,0,0-20.382,2.374.952.952,0,0,1-1.035-.392c-14.1-21.061-27.915-36.9-41.061-47.068-12.8-9.9-25.31-14.695-37.189-14.257-10.443.39-20.724,4.844-30.559,13.24-9.731,8.307-19.3,20.7-28.441,36.84a.954.954,0,0,1-1.51.2c-9.909-10.1-20.825-15.959-32.446-17.408-11.451-1.427-23.953,1.376-37.16,8.332a.956.956,0,0,1-1.2-.263.986.986,0,0,1-.17-.364c-.982-3.719-3.311-6.133-6.235-6.46-2.828-.317-5.584,1.411-7.194,4.509a.953.953,0,0,1-1.152.463c-9.84-3.344-17.481-3.532-22.709-.561-4.134,2.349-6.922,6.789-8.285,13.195a.953.953,0,0,1-1.193.718c-19.855-5.647-38.005-8.6-53.947-8.778-13.676-.149-26.165,1.742-37.117,5.629-20.081,7.127-32.049,19.835-40.787,29.113C11.63,804.871,6.249,810.581,0,810.6V808.7c5.43-.018,10.3-5.2,17.051-12.361,17.861-18.965,47.714-50.657,132.793-26.765,1.559-6.433,4.577-10.96,8.982-13.464,5.584-3.172,13.491-3.117,23.512.163,2.03-3.361,5.3-5.189,8.7-4.811,3.423.383,6.176,2.883,7.529,6.765,13.184-6.752,25.714-9.445,37.262-8.007,11.71,1.459,22.7,7.2,32.683,17.072,9.064-15.8,18.561-28,28.241-36.26,10.169-8.682,20.843-13.29,31.725-13.7,12.338-.459,25.264,4.47,38.427,14.654,13.19,10.206,27.016,26,41.1,46.953a64.087,64.087,0,0,1,20.351-2.262,32.664,32.664,0,0,1,15.458,4.876c8.325,5.357,13.747,14.85,16.537,28.978a97.116,97.116,0,0,1,25.789-26.42,108.946,108.946,0,0,1,35.572-15.638c24.444-6.112,54.023-6.256,90.4-.435.735-4.519,2.764-7.94,6.04-10.18,8.753-5.984,25.417-2.818,40.644,1.123a80.561,80.561,0,0,1,21.345-7.54,53.933,53.933,0,0,1,19.265-.25c11,1.924,21.166,7.424,31.022,16.8,2.692-10.312,7.678-18.613,14.834-24.691,7.009-5.954,15.965-9.681,26.618-11.077,21.874-2.867,49.613,4.415,76.1,19.978a183.063,183.063,0,0,1,36.391,28.031,156.671,156.671,0,0,1,27.259,35.887c8.426-8.043,17.449-7.829,26.844.64,4.9-4.063,10.046-7.7,14.751-7.705v1.906c-4.3.009-9.352,3.752-14.168,7.8A.951.951,0,0,1,938.444,818.981ZM104.378,757.828h-2.145V654.164H64.343v41.227a.953.953,0,0,1-.953.953H42.657v23.592H40.75V653.211a.953.953,0,0,1,.953-.953h8.579V617.465h1.906v34.793h2.86V634.385h1.906v17.873h46.47a.953.953,0,0,1,.953.953v32.41h23.116a.953.953,0,0,1,.953.953V748.3h-1.906V687.527H104.378Zm-61.721-63.39H62.436V675.374H42.657Zm0-21.209H62.436V654.164H42.657Zm111.766,58.623h-1.906V577.906H80.786v65.534H78.879V576.953a.953.953,0,0,1,.953-.953h73.637a.953.953,0,0,1,.953.953ZM57.194,690.625H47.9a.953.953,0,0,1-.953-.953V680.14a.953.953,0,0,1,.953-.953h9.294a.953.953,0,0,1,.953.953v9.532A.953.953,0,0,1,57.194,690.625Zm-8.341-1.906H56.24v-7.626H48.853Zm74.828-18.826h-1.906V584.1h1.906Zm-66.487-.477H47.9a.953.953,0,0,1-.953-.953v-9.532a.953.953,0,0,1,.953-.953h9.294a.953.953,0,0,1,.953.953v9.532A.953.953,0,0,1,57.194,669.416Zm-8.341-1.906H56.24v-7.626H48.853ZM98.9,627.951H84.6a.953.953,0,0,1-.953-.953v-7.149a.953.953,0,0,1,.953-.953H98.9a.953.953,0,0,1,.953.953V627A.953.953,0,0,1,98.9,627.951Zm-13.345-1.906H97.944V620.8H85.552ZM98.9,616.035H84.6a.953.953,0,0,1-.953-.953v-7.149a.953.953,0,0,1,.953-.953H98.9a.953.953,0,0,1,.953.953v7.149A.953.953,0,0,1,98.9,616.035Zm-13.345-1.906H97.944v-5.243H85.552ZM98.9,604.12H84.6a.953.953,0,0,1-.953-.953v-7.149a.953.953,0,0,1,.953-.953H98.9a.953.953,0,0,1,.953.953v7.149A.953.953,0,0,1,98.9,604.12Zm-13.345-1.906H97.944v-5.243H85.552ZM98.9,592.2H84.6a.953.953,0,0,1-.953-.953V584.1a.953.953,0,0,1,.953-.953H98.9a.953.953,0,0,1,.953.953v7.149A.953.953,0,0,1,98.9,592.2ZM85.552,590.3H97.944v-5.243H85.552Z" transform="translate(180.293 -338.519)" fill="#e2f1ce"/>
    <rect id="Rectangle_2" data-name="Rectangle 2" width="9.532" height="133.452" transform="translate(333.201 247.246)" fill="#e2f1ce"/>
    <path id="Path_3" data-name="Path 3" d="M718.812,1045.87a.954.954,0,0,1-1.15-.933V965.056H688.826v15.529c.083.063.09.128.238.2v16.648c-.148.526-1.1.992-1.1.992H671.906v17.829a.976.976,0,0,1-.756.969.954.954,0,0,1-1.15-.933v-35.4l.238-.1V964.1a.953.953,0,0,1,.953-.953H675v-6.2a.953.953,0,0,1,.953-.953h38.129a.953.953,0,0,1,.953.953v6.2h3.575a.953.953,0,0,1,.953.953v80.8A.976.976,0,0,1,718.812,1045.87Zm-46.905-49.358H686.92V981.737H671.906Zm0-16.681H686.92V965.056H671.906Zm16.031-16.681h25.2v-5.243H676.911v5.243Zm-4.83,30.5h-7.149A.953.953,0,0,1,675,992.7V985.55a.953.953,0,0,1,.953-.953h7.149a.953.953,0,0,1,.953.953V992.7A.953.953,0,0,1,683.107,993.652Zm-6.2-1.906h5.243V986.5h-5.243Zm6.2-14.775h-7.149a.953.953,0,0,1-.953-.953v-7.149a.953.953,0,0,1,.953-.953h7.149a.953.953,0,0,1,.953.953v7.149A.953.953,0,0,1,683.107,976.971Zm-6.2-1.906h5.243v-5.243h-5.243Z" transform="translate(-316.543 -623.917)" fill="#e2f1ce"/>
    <rect id="Rectangle_3" data-name="Rectangle 3" width="11.915" height="45.278" transform="translate(380.862 364.016)" fill="#e2f1ce"/>
    <path id="Path_4" data-name="Path 4" d="M930.531,746.1V715.273a.977.977,0,0,1,.756-.969.954.954,0,0,1,1.15.934v30.895a.954.954,0,0,1-1.15.933A.976.976,0,0,1,930.531,746.1Zm-7.149,0V715.273a.977.977,0,0,1,.756-.969.954.954,0,0,1,1.15.934v30.895a.954.954,0,0,1-1.15.933A.976.976,0,0,1,923.381,746.1Zm435.344-13.4a.954.954,0,0,1-1.15-.933V577.906h-71.73v65.611a.976.976,0,0,1-.756.969.954.954,0,0,1-1.151-.933v-66.6a.953.953,0,0,1,.953-.953h73.637a.953.953,0,0,1,.953.953V731.721A.976.976,0,0,1,1358.726,732.691ZM988.875,716.065a.954.954,0,0,1-1.15-.933v-8.539H948.208a.977.977,0,0,1-.969-.756.954.954,0,0,1,.933-1.15h39.552v-5.243H948.208a.977.977,0,0,1-.969-.756.954.954,0,0,1,.933-1.15h39.552v-2.86H939.586v13.345a.953.953,0,0,1-.953.953H921.987a.976.976,0,0,1-.969-.756.954.954,0,0,1,.933-1.151H937.68V693.723a.953.953,0,0,1,.953-.953h50.044a.953.953,0,0,1,.953.953v3.813h1.411a.976.976,0,0,1,.969.756.954.954,0,0,1-.933,1.15h-1.447v5.243h1.411a.976.976,0,0,1,.969.756.954.954,0,0,1-.933,1.151h-1.447v8.5A.976.976,0,0,1,988.875,716.065Zm-35.967-23.806a.952.952,0,0,1-.667-.272l-7.175-7.031a.953.953,0,0,1,1.334-1.362l6.4,6.272,6.489-8.594a.953.953,0,1,1,1.521,1.149l-7.143,9.459a.954.954,0,0,1-.69.376Zm373.688-22.4V584.1a.976.976,0,0,1,.756-.969.954.954,0,0,1,1.15.933V669.9a.954.954,0,0,1-1.15.933A.976.976,0,0,1,1326.6,669.861Zm-22.639-41.91h-14.3a.953.953,0,0,1-.953-.953v-7.149a.953.953,0,0,1,.953-.953h14.3a.953.953,0,0,1,.953.953V627A.953.953,0,0,1,1303.957,627.951Zm-13.345-1.906H1303V620.8h-12.392Zm13.345-10.009h-14.3a.953.953,0,0,1-.953-.953v-7.149a.953.953,0,0,1,.953-.953h14.3a.953.953,0,0,1,.953.953v7.149A.953.953,0,0,1,1303.957,616.035Zm-13.345-1.906H1303v-5.243h-12.392Zm13.345-10.009h-14.3a.953.953,0,0,1-.953-.953v-7.149a.953.953,0,0,1,.953-.953h14.3a.953.953,0,0,1,.953.953v7.149A.953.953,0,0,1,1303.957,604.12Zm-13.345-1.906H1303v-5.243h-12.392Zm13.107-10.009h-14.3a.953.953,0,0,1-.953-.953V584.1a.953.953,0,0,1,.953-.953h14.3a.953.953,0,0,1,.953.953v7.149A.953.953,0,0,1,1303.718,592.2Zm-13.345-1.906h12.392v-5.243h-12.392Z" transform="translate(-521.225 -338.519)" fill="#8ec741"/>
    <rect id="Rectangle_4" data-name="Rectangle 4" width="9.532" height="133.452" transform="translate(823.244 243.2)" fill="#8ec741"/>
    <path id="Path_5" data-name="Path 5" d="M2831.05,1045.87a.954.954,0,0,1-1.15-.933V965.056h-28.835v15.531c.009.062.015.127.239.193v16.648c-.223.526-1.176.992-1.176.992h-15.982v17.826a.957.957,0,0,1-.956.953c-.527,0-1.189-.953-1.189-.953V980.885l.238-.106V964.1a.953.953,0,0,1,.953-.953h4.051v-6.2a.953.953,0,0,1,.953-.953h38.129a.953.953,0,0,1,.954.953v6.2h3.574a.953.953,0,0,1,.953.953v80.8A.976.976,0,0,1,2831.05,1045.87Zm-46.905-49.358h15.013V981.737h-15.013Zm0-16.681h15.013V965.056h-15.013Zm16.031-16.681h25.2v-5.243h-36.222v5.243Zm-4.831,30.5H2788.2a.953.953,0,0,1-.953-.953V985.55a.953.953,0,0,1,.953-.953h7.149a.953.953,0,0,1,.953.953V992.7A.953.953,0,0,1,2795.345,993.652Zm-6.2-1.906h5.243V986.5h-5.243Zm6.2-14.775H2788.2a.953.953,0,0,1-.953-.953v-7.149a.953.953,0,0,1,.953-.953h7.149a.953.953,0,0,1,.953.953v7.149A.953.953,0,0,1,2795.345,976.971Zm-6.2-1.906h5.243v-5.243h-5.243Z" transform="translate(-1938.739 -627.963)" fill="#8ec741"/>
    <rect id="Rectangle_5" data-name="Rectangle 5" width="11.915" height="45.278" transform="translate(870.905 359.97)" fill="#8ec741"/>
    <path id="Path_6" data-name="Path 6" d="M3232.228,1031.577a.954.954,0,0,1-1.15-.933V907.734h-5.243v122.873a.977.977,0,0,1-.756.969.954.954,0,0,1-1.15-.933V907.734h-33.839v101.375a.977.977,0,0,1-.756.969.954.954,0,0,1-1.15-.933V906.781a.954.954,0,0,1,.953-.953h35.4a.984.984,0,0,1,.642,0h6.849a.953.953,0,0,1,.954.953v123.826A.977.977,0,0,1,3232.228,1031.577Zm-31.177-26.137H3193.9a.954.954,0,0,1-.953-.953v-7.149a.954.954,0,0,1,.953-.953h7.149a.953.953,0,0,1,.953.953v7.149A.953.953,0,0,1,3201.051,1005.44Zm-6.2-1.906h5.243v-5.243h-5.243Zm-40.036-3.995V954.681a.953.953,0,0,1,.953-.953h28.518a.976.976,0,0,1,.969.756.954.954,0,0,1-.933,1.15h-27.6v43.941a.954.954,0,0,1-1.15.933A.976.976,0,0,1,3154.82,999.539Zm-111.527-2.256V966.46a.977.977,0,0,1,.756-.969.954.954,0,0,1,1.15.933v30.895a.954.954,0,0,1-1.15.933A.976.976,0,0,1,3043.292,997.283Zm-6.911,0V966.46a.977.977,0,0,1,.756-.969.954.954,0,0,1,1.15.933v30.895a.954.954,0,0,1-1.15.933A.977.977,0,0,1,3036.381,997.283Zm164.67-6.141H3193.9a.954.954,0,0,1-.953-.953v-7.149a.954.954,0,0,1,.953-.953h7.149a.953.953,0,0,1,.953.953v7.149A.953.953,0,0,1,3201.051,991.142Zm-6.2-1.906h5.243v-5.243h-5.243Zm-12.824-5.243h-21.42a.976.976,0,0,1-.969-.756.954.954,0,0,1,.934-1.15H3182a.977.977,0,0,1,.969.756A.954.954,0,0,1,3182.032,983.992Zm0-7.149h-21.368a.977.977,0,0,1-.97-.756.954.954,0,0,1,.934-1.15H3182a.976.976,0,0,1,.969.756A.954.954,0,0,1,3182.032,976.843Zm19.02,0H3193.9a.954.954,0,0,1-.953-.953v-7.149a.954.954,0,0,1,.953-.953h7.149a.953.953,0,0,1,.953.953v7.149A.953.953,0,0,1,3201.051,976.843Zm-6.2-1.906h5.243v-5.243h-5.243Zm-12.824-5.243h-21.42a.976.976,0,0,1-.969-.756.954.954,0,0,1,.934-1.15H3182a.976.976,0,0,1,.969.756A.954.954,0,0,1,3182.032,969.694Zm-80.157-2.442a.954.954,0,0,1-1.15-.933v-8.539h-39.516a.976.976,0,0,1-.969-.756.954.954,0,0,1,.933-1.15h39.552V950.63h-39.516a.976.976,0,0,1-.969-.756.954.954,0,0,1,.933-1.15h39.552v-2.86h-48.138v13.345a.953.953,0,0,1-.953.953h-16.646a.976.976,0,0,1-.969-.756.954.954,0,0,1,.933-1.151h15.729V944.91a.954.954,0,0,1,.954-.953h50.044a.954.954,0,0,1,.953.953v3.813h1.411a.976.976,0,0,1,.969.756.954.954,0,0,1-.933,1.15h-1.447v5.243h1.411a.976.976,0,0,1,.969.756.954.954,0,0,1-.933,1.151h-1.447v8.5A.976.976,0,0,1,3101.875,967.252Zm79.948-4.707h-21.158a.977.977,0,0,1-.97-.756.954.954,0,0,1,.934-1.15h21.158a.976.976,0,0,1,.969.756A.954.954,0,0,1,3181.822,962.545Zm19.229,0H3193.9a.954.954,0,0,1-.953-.953v-7.149a.954.954,0,0,1,.953-.953h7.149a.953.953,0,0,1,.953.953v7.149A.953.953,0,0,1,3201.051,962.545Zm-6.2-1.906h5.243V955.4h-5.243Zm6.2-12.392H3193.9a.954.954,0,0,1-.953-.953v-7.149a.954.954,0,0,1,.953-.953h7.149a.953.953,0,0,1,.953.953v7.149A.953.953,0,0,1,3201.051,948.246Zm-6.2-1.906h5.243V941.1h-5.243Zm6.2-12.392H3193.9a.954.954,0,0,1-.953-.953v-7.149a.954.954,0,0,1,.953-.953h7.149a.953.953,0,0,1,.953.953v7.149A.953.953,0,0,1,3201.051,933.948Zm-6.2-1.906h5.243V926.8h-5.243Zm6.2-12.392H3193.9a.954.954,0,0,1-.953-.953v-7.149a.954.954,0,0,1,.953-.953h7.149a.953.953,0,0,1,.953.953V918.7A.953.953,0,0,1,3201.051,919.65Zm-6.2-1.906h5.243V912.5h-5.243Z" transform="translate(-2130.684 -589.706)" fill="#8ec741"/>
    <rect id="Rectangle_6" data-name="Rectangle 6" width="9.532" height="119.153" transform="translate(1093.398 325.887)" fill="#8ec741"/>
    <path id="bird" d="M884.365,416.553a.953.953,0,0,1-.942-.8c-.8-5.062-4.005-7.79-9.793-8.34a.953.953,0,1,1,.18-1.9c5.752.546,9.418,3.1,10.931,7.6,2.683-3.938,6.191-5.74,10.666-5.492a.953.953,0,1,1-.1,1.9c-4.424-.243-7.633,1.828-10.093,6.52A.954.954,0,0,1,884.365,416.553Zm509-25.886a.954.954,0,0,1-.844-.51c-2.461-4.692-5.669-6.762-10.093-6.52a.953.953,0,1,1-.1-1.9c4.474-.249,7.983,1.554,10.666,5.492,1.513-4.5,5.179-7.054,10.931-7.6a.953.953,0,1,1,.18,1.9c-5.787.549-8.99,3.277-9.793,8.34a.953.953,0,0,1-.942.8Zm-539.052-24.96a.955.955,0,0,1-.942-.8c-.8-5.063-4.005-7.79-9.793-8.34a.953.953,0,0,1,.18-1.9c5.752.546,9.419,3.1,10.931,7.6,2.683-3.938,6.192-5.737,10.666-5.492a.953.953,0,1,1-.1,1.9c-4.426-.243-7.633,1.829-10.093,6.52A.954.954,0,0,1,854.315,365.707Zm569.1-25.886a.953.953,0,0,1-.844-.51c-2.461-4.692-5.667-6.762-10.093-6.52a.953.953,0,1,1-.1-1.9c4.474-.246,7.983,1.554,10.666,5.492,1.513-4.5,5.179-7.054,10.931-7.6a.953.953,0,1,1,.18,1.9c-5.787.549-8.99,3.277-9.793,8.34a.953.953,0,0,1-.942.8Z" transform="translate(-448.101 -146.163)" fill="#8ec741"/>
    <path id="Path_1-2" data-name="Path 1" d="M7.033,1570.26c20.122-27.078,48.312-45.539,89.985-49.4,41.785-3.871,99.107,37.2,147.18,31.611,42.618-4.959,79.209-18.84,112.335-16.313,31.29,2.387,56.954,7.957,81.666,20.211,26.915,13.346,76.205-38.169,117.765-37.645,52.689.664,95.169,38.9,145.027,32.378,28.913-3.784,54.04-13.834,81.786-14.944,15.6-.624,20.745,10.777,31.253,16.455,7.238,3.911,26.089-16.984,44.621-16.455,16.679.477,21.546,15.063,43.228,16.884,40.173,3.374,57.415-5.069,55.966,17.218Z" transform="translate(1141.66 -1052.536)" fill="#8ec741" fill-rule="evenodd" opacity="0.26"/>
    <path id="Path_2-2" data-name="Path 2" d="M953.225,853.15H0v-1.906H953.225Zm-14.781-34.169a.952.952,0,0,1-.652-.258c-9.182-8.617-17.591-8.736-25.71-.363a.953.953,0,0,1-1.525-.215,154.2,154.2,0,0,0-27.529-36.559,181.152,181.152,0,0,0-36.012-27.739c-26.133-15.352-53.431-22.544-74.892-19.731-21.5,2.817-35.41,15.237-40.24,35.918a.949.949,0,0,1-.3.517.96.96,0,0,1-1.3-.04c-9.945-9.8-20.154-15.507-31.209-17.44-12.291-2.149-25.289.394-39.738,7.775a.956.956,0,0,1-.673.073c-14.907-3.876-31.25-7.083-39.439-1.485-3.077,2.1-4.83,5.314-5.36,9.813a.953.953,0,0,1-1.1.83c-36.557-5.935-66.19-5.854-90.593.248a107.047,107.047,0,0,0-34.953,15.359,95.668,95.668,0,0,0-26.554,27.864.973.973,0,0,1-.635.451.956.956,0,0,1-1.125-.777c-2.544-14.885-7.819-24.718-16.125-30.064a30.778,30.778,0,0,0-14.567-4.577,62.964,62.964,0,0,0-20.382,2.374.952.952,0,0,1-1.035-.392c-14.1-21.061-27.915-36.9-41.061-47.068-12.8-9.9-25.31-14.695-37.189-14.257-10.443.39-20.724,4.844-30.559,13.24-9.731,8.307-19.3,20.7-28.441,36.84a.954.954,0,0,1-1.51.2c-9.909-10.1-20.825-15.959-32.446-17.408-11.451-1.427-23.953,1.376-37.16,8.332a.956.956,0,0,1-1.2-.263.986.986,0,0,1-.17-.364c-.982-3.719-3.311-6.133-6.235-6.46-2.828-.317-5.584,1.411-7.194,4.509a.953.953,0,0,1-1.152.463c-9.84-3.344-17.481-3.532-22.709-.561-4.134,2.349-6.922,6.789-8.285,13.195a.953.953,0,0,1-1.193.718c-19.855-5.647-38.005-8.6-53.947-8.778-13.676-.149-26.165,1.742-37.117,5.629-20.081,7.127-32.049,19.835-40.787,29.113C11.63,804.871,6.249,810.581,0,810.6V808.7c5.43-.018,10.3-5.2,17.051-12.361,17.861-18.965,47.714-50.657,132.793-26.765,1.559-6.433,4.577-10.96,8.982-13.464,5.584-3.172,13.491-3.117,23.512.163,2.03-3.361,5.3-5.189,8.7-4.811,3.423.383,6.176,2.883,7.529,6.765,13.184-6.752,25.714-9.445,37.262-8.007,11.71,1.459,22.7,7.2,32.683,17.072,9.064-15.8,18.561-28,28.241-36.26,10.169-8.682,20.843-13.29,31.725-13.7,12.338-.459,25.264,4.47,38.427,14.654,13.19,10.206,27.016,26,41.1,46.953a64.087,64.087,0,0,1,20.351-2.262,32.664,32.664,0,0,1,15.458,4.876c8.325,5.357,13.747,14.85,16.537,28.978a97.116,97.116,0,0,1,25.789-26.42,108.946,108.946,0,0,1,35.572-15.638c24.444-6.112,54.023-6.256,90.4-.435.735-4.519,2.764-7.94,6.04-10.18,8.753-5.984,25.417-2.818,40.644,1.123a80.561,80.561,0,0,1,21.345-7.54,53.933,53.933,0,0,1,19.265-.25c11,1.924,21.166,7.424,31.022,16.8,2.692-10.312,7.678-18.613,14.834-24.691,7.009-5.954,15.965-9.681,26.618-11.077,21.874-2.867,49.613,4.415,76.1,19.978a183.063,183.063,0,0,1,36.391,28.031,156.671,156.671,0,0,1,27.259,35.887c8.426-8.043,17.449-7.829,26.844.64,4.9-4.063,10.046-7.7,14.751-7.705v1.906c-4.3.009-9.352,3.752-14.168,7.8A.951.951,0,0,1,938.444,818.981ZM104.378,757.828h-2.145V654.164H64.343v41.227a.953.953,0,0,1-.953.953H42.657v23.592H40.75V653.211a.953.953,0,0,1,.953-.953h8.579V617.465h1.906v34.793h2.86V634.385h1.906v17.873h46.47a.953.953,0,0,1,.953.953v32.41h23.116a.953.953,0,0,1,.953.953V748.3h-1.906V687.527H104.378Zm-61.721-63.39H62.436V675.374H42.657Zm0-21.209H62.436V654.164H42.657Zm111.766,58.623h-1.906V577.906H80.786v65.534H78.879V576.953a.953.953,0,0,1,.953-.953h73.637a.953.953,0,0,1,.953.953ZM57.194,690.625H47.9a.953.953,0,0,1-.953-.953V680.14a.953.953,0,0,1,.953-.953h9.294a.953.953,0,0,1,.953.953v9.532A.953.953,0,0,1,57.194,690.625Zm-8.341-1.906H56.24v-7.626H48.853Zm74.828-18.826h-1.906V584.1h1.906Zm-66.487-.477H47.9a.953.953,0,0,1-.953-.953v-9.532a.953.953,0,0,1,.953-.953h9.294a.953.953,0,0,1,.953.953v9.532A.953.953,0,0,1,57.194,669.416Zm-8.341-1.906H56.24v-7.626H48.853ZM98.9,627.951H84.6a.953.953,0,0,1-.953-.953v-7.149a.953.953,0,0,1,.953-.953H98.9a.953.953,0,0,1,.953.953V627A.953.953,0,0,1,98.9,627.951Zm-13.345-1.906H97.944V620.8H85.552ZM98.9,616.035H84.6a.953.953,0,0,1-.953-.953v-7.149a.953.953,0,0,1,.953-.953H98.9a.953.953,0,0,1,.953.953v7.149A.953.953,0,0,1,98.9,616.035Zm-13.345-1.906H97.944v-5.243H85.552ZM98.9,604.12H84.6a.953.953,0,0,1-.953-.953v-7.149a.953.953,0,0,1,.953-.953H98.9a.953.953,0,0,1,.953.953v7.149A.953.953,0,0,1,98.9,604.12Zm-13.345-1.906H97.944v-5.243H85.552ZM98.9,592.2H84.6a.953.953,0,0,1-.953-.953V584.1a.953.953,0,0,1,.953-.953H98.9a.953.953,0,0,1,.953.953v7.149A.953.953,0,0,1,98.9,592.2ZM85.552,590.3H97.944v-5.243H85.552Z" transform="translate(1147.017 -334.473)" fill="#e2f1ce"/>
    <rect id="Rectangle_2-2" data-name="Rectangle 2" width="9.532" height="133.452" transform="translate(1286.426 247.246)" fill="#8ec741" opacity="0.301"/>
    <path id="Path_3-2" data-name="Path 3" d="M718.812,1045.87a.954.954,0,0,1-1.15-.933V965.056H688.826v15.529c.083.063.09.128.238.2v16.648c-.148.526-1.1.992-1.1.992H671.906v17.829a.976.976,0,0,1-.756.969.954.954,0,0,1-1.15-.933v-35.4l.238-.1V964.1a.953.953,0,0,1,.953-.953H675v-6.2a.953.953,0,0,1,.953-.953h38.129a.953.953,0,0,1,.953.953v6.2h3.575a.953.953,0,0,1,.953.953v80.8A.976.976,0,0,1,718.812,1045.87Zm-46.905-49.358H686.92V981.737H671.906Zm0-16.681H686.92V965.056H671.906Zm16.031-16.681h25.2v-5.243H676.911v5.243Zm-4.83,30.5h-7.149A.953.953,0,0,1,675,992.7V985.55a.953.953,0,0,1,.953-.953h7.149a.953.953,0,0,1,.953.953V992.7A.953.953,0,0,1,683.107,993.652Zm-6.2-1.906h5.243V986.5h-5.243Zm6.2-14.775h-7.149a.953.953,0,0,1-.953-.953v-7.149a.953.953,0,0,1,.953-.953h7.149a.953.953,0,0,1,.953.953v7.149A.953.953,0,0,1,683.107,976.971Zm-6.2-1.906h5.243v-5.243h-5.243Z" transform="translate(636.682 -623.917)" fill="#ddeec5"/>
    <rect id="Rectangle_3-2" data-name="Rectangle 3" width="11.915" height="45.278" transform="translate(1334.087 364.016)" fill="#8ec741" opacity="0.301"/>
    <path id="Path_4-2" data-name="Path 4" d="M930.531,746.1V715.273a.977.977,0,0,1,.756-.969.954.954,0,0,1,1.15.934v30.895a.954.954,0,0,1-1.15.933A.976.976,0,0,1,930.531,746.1Zm-7.149,0V715.273a.977.977,0,0,1,.756-.969.954.954,0,0,1,1.15.934v30.895a.954.954,0,0,1-1.15.933A.976.976,0,0,1,923.381,746.1Zm435.344-13.4a.954.954,0,0,1-1.15-.933V577.906h-71.73v65.611a.976.976,0,0,1-.756.969.954.954,0,0,1-1.151-.933v-66.6a.953.953,0,0,1,.953-.953h73.637a.953.953,0,0,1,.953.953V731.721A.976.976,0,0,1,1358.726,732.691ZM988.875,716.065a.954.954,0,0,1-1.15-.933v-8.539H948.208a.977.977,0,0,1-.969-.756.954.954,0,0,1,.933-1.15h39.552v-5.243H948.208a.977.977,0,0,1-.969-.756.954.954,0,0,1,.933-1.15h39.552v-2.86H939.586v13.345a.953.953,0,0,1-.953.953H921.987a.976.976,0,0,1-.969-.756.954.954,0,0,1,.933-1.151H937.68V693.723a.953.953,0,0,1,.953-.953h50.044a.953.953,0,0,1,.953.953v3.813h1.411a.976.976,0,0,1,.969.756.954.954,0,0,1-.933,1.15h-1.447v5.243h1.411a.976.976,0,0,1,.969.756.954.954,0,0,1-.933,1.151h-1.447v8.5A.976.976,0,0,1,988.875,716.065Zm-35.967-23.806a.952.952,0,0,1-.667-.272l-7.175-7.031a.953.953,0,0,1,1.334-1.362l6.4,6.272,6.489-8.594a.953.953,0,1,1,1.521,1.149l-7.143,9.459a.954.954,0,0,1-.69.376Zm373.688-22.4V584.1a.976.976,0,0,1,.756-.969.954.954,0,0,1,1.15.933V669.9a.954.954,0,0,1-1.15.933A.976.976,0,0,1,1326.6,669.861Zm-22.639-41.91h-14.3a.953.953,0,0,1-.953-.953v-7.149a.953.953,0,0,1,.953-.953h14.3a.953.953,0,0,1,.953.953V627A.953.953,0,0,1,1303.957,627.951Zm-13.345-1.906H1303V620.8h-12.392Zm13.345-10.009h-14.3a.953.953,0,0,1-.953-.953v-7.149a.953.953,0,0,1,.953-.953h14.3a.953.953,0,0,1,.953.953v7.149A.953.953,0,0,1,1303.957,616.035Zm-13.345-1.906H1303v-5.243h-12.392Zm13.345-10.009h-14.3a.953.953,0,0,1-.953-.953v-7.149a.953.953,0,0,1,.953-.953h14.3a.953.953,0,0,1,.953.953v7.149A.953.953,0,0,1,1303.957,604.12Zm-13.345-1.906H1303v-5.243h-12.392Zm13.107-10.009h-14.3a.953.953,0,0,1-.953-.953V584.1a.953.953,0,0,1,.953-.953h14.3a.953.953,0,0,1,.953.953v7.149A.953.953,0,0,1,1303.718,592.2Zm-13.345-1.906h12.392v-5.243h-12.392Z" transform="translate(445.499 -334.473)" fill="#e2f1ce"/>
    <path id="Path_158" data-name="Path 158" d="M7.033,1570.26c20.122-27.078,48.312-45.539,89.985-49.4,41.785-3.871,99.107,37.2,147.18,31.611,42.618-4.959,79.209-18.84,112.335-16.313,31.29,2.387,56.954,7.957,81.666,20.211,26.915,13.346,76.205-38.169,117.765-37.645,52.689.664,95.169,38.9,145.027,32.378,28.913-3.784,54.04-13.834,81.786-14.944,15.6-.624,20.745,10.777,31.253,16.455,7.238,3.911,26.089-16.984,44.621-16.455,16.679.477,21.546,15.063,43.228,16.884,40.173,3.374,57.415-5.069,55.966,17.218Z" transform="translate(-764.791 -1052.536)" fill="#8ec741" fill-rule="evenodd" opacity="0.26"/>
    <path id="Path_159" data-name="Path 159" d="M953.225,853.15H0v-1.906H953.225Zm-14.781-34.169a.952.952,0,0,1-.652-.258c-9.182-8.617-17.591-8.736-25.71-.363a.953.953,0,0,1-1.525-.215,154.2,154.2,0,0,0-27.529-36.559,181.152,181.152,0,0,0-36.012-27.739c-26.133-15.352-53.431-22.544-74.892-19.731-21.5,2.817-35.41,15.237-40.24,35.918a.949.949,0,0,1-.3.517.96.96,0,0,1-1.3-.04c-9.945-9.8-20.154-15.507-31.209-17.44-12.291-2.149-25.289.394-39.738,7.775a.956.956,0,0,1-.673.073c-14.907-3.876-31.25-7.083-39.439-1.485-3.077,2.1-4.83,5.314-5.36,9.813a.953.953,0,0,1-1.1.83c-36.557-5.935-66.19-5.854-90.593.248a107.047,107.047,0,0,0-34.953,15.359,95.668,95.668,0,0,0-26.554,27.864.973.973,0,0,1-.635.451.956.956,0,0,1-1.125-.777c-2.544-14.885-7.819-24.718-16.125-30.064a30.778,30.778,0,0,0-14.567-4.577,62.964,62.964,0,0,0-20.382,2.374.952.952,0,0,1-1.035-.392c-14.1-21.061-27.915-36.9-41.061-47.068-12.8-9.9-25.31-14.695-37.189-14.257-10.443.39-20.724,4.844-30.559,13.24-9.731,8.307-19.3,20.7-28.441,36.84a.954.954,0,0,1-1.51.2c-9.909-10.1-20.825-15.959-32.446-17.408-11.451-1.427-23.953,1.376-37.16,8.332a.956.956,0,0,1-1.2-.263.986.986,0,0,1-.17-.364c-.982-3.719-3.311-6.133-6.235-6.46-2.828-.317-5.584,1.411-7.194,4.509a.953.953,0,0,1-1.152.463c-9.84-3.344-17.481-3.532-22.709-.561-4.134,2.349-6.922,6.789-8.285,13.195a.953.953,0,0,1-1.193.718c-19.855-5.647-38.005-8.6-53.947-8.778-13.676-.149-26.165,1.742-37.117,5.629-20.081,7.127-32.049,19.835-40.787,29.113C11.63,804.871,6.249,810.581,0,810.6V808.7c5.43-.018,10.3-5.2,17.051-12.361,17.861-18.965,47.714-50.657,132.793-26.765,1.559-6.433,4.577-10.96,8.982-13.464,5.584-3.172,13.491-3.117,23.512.163,2.03-3.361,5.3-5.189,8.7-4.811,3.423.383,6.176,2.883,7.529,6.765,13.184-6.752,25.714-9.445,37.262-8.007,11.71,1.459,22.7,7.2,32.683,17.072,9.064-15.8,18.561-28,28.241-36.26,10.169-8.682,20.843-13.29,31.725-13.7,12.338-.459,25.264,4.47,38.427,14.654,13.19,10.206,27.016,26,41.1,46.953a64.087,64.087,0,0,1,20.351-2.262,32.664,32.664,0,0,1,15.458,4.876c8.325,5.357,13.747,14.85,16.537,28.978a97.116,97.116,0,0,1,25.789-26.42,108.946,108.946,0,0,1,35.572-15.638c24.444-6.112,54.023-6.256,90.4-.435.735-4.519,2.764-7.94,6.04-10.18,8.753-5.984,25.417-2.818,40.644,1.123a80.561,80.561,0,0,1,21.345-7.54,53.933,53.933,0,0,1,19.265-.25c11,1.924,21.166,7.424,31.022,16.8,2.692-10.312,7.678-18.613,14.834-24.691,7.009-5.954,15.965-9.681,26.618-11.077,21.874-2.867,49.613,4.415,76.1,19.978a183.063,183.063,0,0,1,36.391,28.031,156.671,156.671,0,0,1,27.259,35.887c8.426-8.043,17.449-7.829,26.844.64,4.9-4.063,10.046-7.7,14.751-7.705v1.906c-4.3.009-9.352,3.752-14.168,7.8A.951.951,0,0,1,938.444,818.981ZM104.378,757.828h-2.145V654.164H64.343v41.227a.953.953,0,0,1-.953.953H42.657v23.592H40.75V653.211a.953.953,0,0,1,.953-.953h8.579V617.465h1.906v34.793h2.86V634.385h1.906v17.873h46.47a.953.953,0,0,1,.953.953v32.41h23.116a.953.953,0,0,1,.953.953V748.3h-1.906V687.527H104.378Zm-61.721-63.39H62.436V675.374H42.657Zm0-21.209H62.436V654.164H42.657Zm111.766,58.623h-1.906V577.906H80.786v65.534H78.879V576.953a.953.953,0,0,1,.953-.953h73.637a.953.953,0,0,1,.953.953ZM57.194,690.625H47.9a.953.953,0,0,1-.953-.953V680.14a.953.953,0,0,1,.953-.953h9.294a.953.953,0,0,1,.953.953v9.532A.953.953,0,0,1,57.194,690.625Zm-8.341-1.906H56.24v-7.626H48.853Zm74.828-18.826h-1.906V584.1h1.906Zm-66.487-.477H47.9a.953.953,0,0,1-.953-.953v-9.532a.953.953,0,0,1,.953-.953h9.294a.953.953,0,0,1,.953.953v9.532A.953.953,0,0,1,57.194,669.416Zm-8.341-1.906H56.24v-7.626H48.853ZM98.9,627.951H84.6a.953.953,0,0,1-.953-.953v-7.149a.953.953,0,0,1,.953-.953H98.9a.953.953,0,0,1,.953.953V627A.953.953,0,0,1,98.9,627.951Zm-13.345-1.906H97.944V620.8H85.552ZM98.9,616.035H84.6a.953.953,0,0,1-.953-.953v-7.149a.953.953,0,0,1,.953-.953H98.9a.953.953,0,0,1,.953.953v7.149A.953.953,0,0,1,98.9,616.035Zm-13.345-1.906H97.944v-5.243H85.552ZM98.9,604.12H84.6a.953.953,0,0,1-.953-.953v-7.149a.953.953,0,0,1,.953-.953H98.9a.953.953,0,0,1,.953.953v7.149A.953.953,0,0,1,98.9,604.12Zm-13.345-1.906H97.944v-5.243H85.552ZM98.9,592.2H84.6a.953.953,0,0,1-.953-.953V584.1a.953.953,0,0,1,.953-.953H98.9a.953.953,0,0,1,.953.953v7.149A.953.953,0,0,1,98.9,592.2ZM85.552,590.3H97.944v-5.243H85.552Z" transform="translate(-759.434 -334.473)" fill="#e2f1ce"/>
    <g id="Group_58" data-name="Group 58" transform="translate(-118.437 309.494)">
      <path id="Path_5-2" data-name="Path 5" d="M2831.05,1045.87a.954.954,0,0,1-1.15-.933V965.056h-28.835v15.531c.009.062.015.127.239.193v16.648c-.223.526-1.176.992-1.176.992h-15.982v17.826a.957.957,0,0,1-.956.953c-.527,0-1.189-.953-1.189-.953V980.885l.238-.106V964.1a.953.953,0,0,1,.953-.953h4.051v-6.2a.953.953,0,0,1,.953-.953h38.129a.953.953,0,0,1,.954.953v6.2h3.574a.953.953,0,0,1,.953.953v80.8A.976.976,0,0,1,2831.05,1045.87Zm-46.905-49.358h15.013V981.737h-15.013Zm0-16.681h15.013V965.056h-15.013Zm16.031-16.681h25.2v-5.243h-36.222v5.243Zm-4.831,30.5H2788.2a.953.953,0,0,1-.953-.953V985.55a.953.953,0,0,1,.953-.953h7.149a.953.953,0,0,1,.953.953V992.7A.953.953,0,0,1,2795.345,993.652Zm-6.2-1.906h5.243V986.5h-5.243Zm6.2-14.775H2788.2a.953.953,0,0,1-.953-.953v-7.149a.953.953,0,0,1,.953-.953h7.149a.953.953,0,0,1,.953.953v7.149A.953.953,0,0,1,2795.345,976.971Zm-6.2-1.906h5.243v-5.243h-5.243Z" transform="translate(-2782 -944.031)" fill="#e2f1ce"/>
      <rect id="Rectangle_5-2" data-name="Rectangle 5" width="11.915" height="45.278" transform="translate(27.644 43.902)" fill="#e2f1ce"/>
      <path id="Path_6-2" data-name="Path 6" d="M3232.228,1031.577a.954.954,0,0,1-1.15-.933V907.734h-5.243v122.873a.977.977,0,0,1-.756.969.954.954,0,0,1-1.15-.933V907.734h-33.839v101.375a.977.977,0,0,1-.756.969.954.954,0,0,1-1.15-.933V906.781a.954.954,0,0,1,.953-.953h35.4a.984.984,0,0,1,.642,0h6.849a.953.953,0,0,1,.954.953v123.826A.977.977,0,0,1,3232.228,1031.577Zm-31.177-26.137H3193.9a.954.954,0,0,1-.953-.953v-7.149a.954.954,0,0,1,.953-.953h7.149a.953.953,0,0,1,.953.953v7.149A.953.953,0,0,1,3201.051,1005.44Zm-6.2-1.906h5.243v-5.243h-5.243Zm-40.036-3.995V954.681a.953.953,0,0,1,.953-.953h28.518a.976.976,0,0,1,.969.756.954.954,0,0,1-.933,1.15h-27.6v43.941a.954.954,0,0,1-1.15.933A.976.976,0,0,1,3154.82,999.539Zm-111.527-2.256V966.46a.977.977,0,0,1,.756-.969.954.954,0,0,1,1.15.933v30.895a.954.954,0,0,1-1.15.933A.976.976,0,0,1,3043.292,997.283Zm-6.911,0V966.46a.977.977,0,0,1,.756-.969.954.954,0,0,1,1.15.933v30.895a.954.954,0,0,1-1.15.933A.977.977,0,0,1,3036.381,997.283Zm164.67-6.141H3193.9a.954.954,0,0,1-.953-.953v-7.149a.954.954,0,0,1,.953-.953h7.149a.953.953,0,0,1,.953.953v7.149A.953.953,0,0,1,3201.051,991.142Zm-6.2-1.906h5.243v-5.243h-5.243Zm-12.824-5.243h-21.42a.976.976,0,0,1-.969-.756.954.954,0,0,1,.934-1.15H3182a.977.977,0,0,1,.969.756A.954.954,0,0,1,3182.032,983.992Zm0-7.149h-21.368a.977.977,0,0,1-.97-.756.954.954,0,0,1,.934-1.15H3182a.976.976,0,0,1,.969.756A.954.954,0,0,1,3182.032,976.843Zm19.02,0H3193.9a.954.954,0,0,1-.953-.953v-7.149a.954.954,0,0,1,.953-.953h7.149a.953.953,0,0,1,.953.953v7.149A.953.953,0,0,1,3201.051,976.843Zm-6.2-1.906h5.243v-5.243h-5.243Zm-12.824-5.243h-21.42a.976.976,0,0,1-.969-.756.954.954,0,0,1,.934-1.15H3182a.976.976,0,0,1,.969.756A.954.954,0,0,1,3182.032,969.694Zm-80.157-2.442a.954.954,0,0,1-1.15-.933v-8.539h-39.516a.976.976,0,0,1-.969-.756.954.954,0,0,1,.933-1.15h39.552V950.63h-39.516a.976.976,0,0,1-.969-.756.954.954,0,0,1,.933-1.15h39.552v-2.86h-48.138v13.345a.953.953,0,0,1-.953.953h-16.646a.976.976,0,0,1-.969-.756.954.954,0,0,1,.933-1.151h15.729V944.91a.954.954,0,0,1,.954-.953h50.044a.954.954,0,0,1,.953.953v3.813h1.411a.976.976,0,0,1,.969.756.954.954,0,0,1-.933,1.15h-1.447v5.243h1.411a.976.976,0,0,1,.969.756.954.954,0,0,1-.933,1.151h-1.447v8.5A.976.976,0,0,1,3101.875,967.252Zm79.948-4.707h-21.158a.977.977,0,0,1-.97-.756.954.954,0,0,1,.934-1.15h21.158a.976.976,0,0,1,.969.756A.954.954,0,0,1,3181.822,962.545Zm19.229,0H3193.9a.954.954,0,0,1-.953-.953v-7.149a.954.954,0,0,1,.953-.953h7.149a.953.953,0,0,1,.953.953v7.149A.953.953,0,0,1,3201.051,962.545Zm-6.2-1.906h5.243V955.4h-5.243Zm6.2-12.392H3193.9a.954.954,0,0,1-.953-.953v-7.149a.954.954,0,0,1,.953-.953h7.149a.953.953,0,0,1,.953.953v7.149A.953.953,0,0,1,3201.051,948.246Zm-6.2-1.906h5.243V941.1h-5.243Zm6.2-12.392H3193.9a.954.954,0,0,1-.953-.953v-7.149a.954.954,0,0,1,.953-.953h7.149a.953.953,0,0,1,.953.953v7.149A.953.953,0,0,1,3201.051,933.948Zm-6.2-1.906h5.243V926.8h-5.243Zm6.2-12.392H3193.9a.954.954,0,0,1-.953-.953v-7.149a.954.954,0,0,1,.953-.953h7.149a.953.953,0,0,1,.953.953V918.7A.953.953,0,0,1,3201.051,919.65Zm-6.2-1.906h5.243V912.5h-5.243Z" transform="translate(-2973.946 -905.774)" fill="#e2f1ce"/>
      <rect id="Rectangle_6-2" data-name="Rectangle 6" width="9.532" height="119.153" transform="translate(236.638 5.773)" fill="#e2f1ce"/>
    </g>
  </g>
</svg>
