<svg xmlns="http://www.w3.org/2000/svg" width="91.657" height="91.605" viewBox="0 0 91.657 91.605">
  <g id="weel-back" transform="translate(-498.812 -426.278)">
    <path id="Path_13" data-name="Path 13" d="M1418.5,1442.408l-.124,5.322c-7.871.019-15.632-.181-23.232-.706a216.591,216.591,0,0,1,4.49,23.161l-4.924,1.376a198.019,198.019,0,0,1-6.653-22.867,223.256,223.256,0,0,1-20.265,11.243l-3.053-4.173c6.324-4.656,12.794-9.084,19.3-13.251a234.037,234.037,0,0,1-19.121-18.189l3.042-3.416c8.126,5.841,13.226,9.573,21.037,15.7l10.091-25.061,6.3,2.762-9.518,25.367C1403.263,1440.276,1411,1441.134,1418.5,1442.408Z" transform="translate(-845.719 -970.906)" fill="#8ec741" fill-rule="evenodd"/>
    <path id="Path_14" data-name="Path 14" d="M1449.787,1513.8a7.031,7.031,0,1,1-7.034,7.031A7.036,7.036,0,0,1,1449.787,1513.8Z" transform="translate(-905.144 -1048.792)" fill="#d9d9d9" fill-rule="evenodd"/>
    <path id="Path_15" data-name="Path 15" d="M1325.781,1351.267a45.8,45.8,0,1,1-45.829,45.8A45.837,45.837,0,0,1,1325.781,1351.267Zm0,14.366a31.437,31.437,0,1,1-31.454,31.437A31.46,31.46,0,0,1,1325.781,1365.633Z" transform="translate(-781.14 -924.989)" fill="#1d1d1b" fill-rule="evenodd"/>
    <path id="Path_16" data-name="Path 16" d="M1371.6,1411.269a31.454,31.454,0,1,1-31.458,31.454A31.471,31.471,0,0,1,1371.6,1411.269Zm0,4.206a27.248,27.248,0,1,1-27.252,27.248A27.262,27.262,0,0,1,1371.6,1415.475Z" transform="translate(-826.985 -970.692)" fill="#bfbfbf" fill-rule="evenodd"/>
  </g>
</svg>
