<svg xmlns="http://www.w3.org/2000/svg" width="91.657" height="91.605" viewBox="0 0 91.657 91.605">
  <g id="weel-front" transform="translate(-762.675 -426.278)">
    <path id="Path_8" data-name="Path 8" d="M2525.739,1442.408l-.125,5.322c-7.871.019-15.632-.181-23.232-.706a216.531,216.531,0,0,1,4.49,23.161l-4.924,1.376a197.994,197.994,0,0,1-6.653-22.867,223.28,223.28,0,0,1-20.266,11.243l-3.053-4.173c6.324-4.656,12.794-9.084,19.3-13.251a233.959,233.959,0,0,1-19.121-18.189l3.042-3.416c8.126,5.841,13.226,9.573,21.037,15.7l10.092-25.061,6.3,2.762-9.518,25.367C2510.5,1440.276,2518.242,1441.134,2525.739,1442.408Z" transform="translate(-1689.097 -970.906)" fill="#8ec741" fill-rule="evenodd"/>
    <path id="Path_9" data-name="Path 9" d="M2557.029,1513.8a7.031,7.031,0,1,1-7.034,7.031A7.036,7.036,0,0,1,2557.029,1513.8Z" transform="translate(-1748.524 -1048.792)" fill="#d9d9d9" fill-rule="evenodd"/>
    <path id="Path_10" data-name="Path 10" d="M2514.559,1458.2a20.293,20.293,0,1,1-20.305,20.292A20.309,20.309,0,0,1,2514.559,1458.2Zm0,6.182a14.11,14.11,0,1,1-14.12,14.11A14.121,14.121,0,0,1,2514.559,1464.384Z" transform="translate(-1706.066 -1006.441)" fill="#b2b2b2" fill-rule="evenodd"/>
    <path id="Path_11" data-name="Path 11" d="M2433.022,1351.267a45.8,45.8,0,1,1-45.828,45.8A45.837,45.837,0,0,1,2433.022,1351.267Zm0,14.366a31.437,31.437,0,1,1-31.455,31.437A31.46,31.46,0,0,1,2433.022,1365.633Z" transform="translate(-1624.519 -924.989)" fill="#1d1d1b" fill-rule="evenodd"/>
    <path id="Path_12" data-name="Path 12" d="M2478.841,1411.269a31.454,31.454,0,1,1-31.458,31.454A31.471,31.471,0,0,1,2478.841,1411.269Zm0,4.206a27.248,27.248,0,1,1-27.252,27.248A27.263,27.263,0,0,1,2478.841,1415.475Z" transform="translate(-1670.364 -970.692)" fill="#bfbfbf" fill-rule="evenodd"/>
  </g>
</svg>
